# xmcd
#
# Track frame offsets:
#	150
#	19289
#	38181
#	55903
#
# Disc length: 850 seconds
#
# Revision: 0
# Processed by: cddbd v1.4PL0 Copyright (c) Steve Scherf et al.
# Submitted via: EasyCDDAExtractor 5.0.4.1
#
DISCID=2e035004
DTITLE=All 4 1 - Not Ready 4 Goodbye
DYEAR=1900
DGENRE=
TTITLE0=radio mix
TTITLE1=midnight mix
TTITLE2=accapella
TTITLE3=Star Spangled Banner
EXTD=
EXTT0=
EXTT1=
EXTT2=
EXTT3=
PLAYORDER=
